The HORiZON-ArtSubs is proud to present the great masterpiece:

Fill The Void Aka Lemale et ha'halal

Country:
Israel/2012

Language:
Hebrew

Subtitle:
Italian (srt)

Director:
Rama Burshtein

Writer:
Rama Burshtein

Stars:
Hila Feldman, Razia Israeli, Yiftach Klein 

Synopsis:
A devout 18-year-old Israeli is pressured to marry the husband of her late sister. Declaring her independence is not an option in Tel Aviv's ultra-Orthodox Hasidic community, where religious law, tradition and the rabbi's word are absolute. 

Trivia: Win 12 Prizes:

* Won SIGNIS Award - Honorable Mention - Rama Burshtein, in Venice Film Festival 2012

* Won Volpi Cup - Best Actress - Hadas Yaron, in Venice Film Festival 2012 

* Won International Jury Award - Best Dramatic Film, in São Paulo International Film Festival

* Official Selection Toronto International Film Festival 2012

* Official Selection Sundance Film Festival 2013

* The official submission of Israel to the Best Foreign Language Film for the 85th Academy Awards/Oscar 2013.

Imdb:  
http://www.imdb.com/title/tt2219514/

Trailer:  
http://www.elfilm.com/title/1802530/trailers




Media Info:

General
Complete name                            : Fill.The.Void.2012.DVDRip.XviD.AC3.HORiZON-ArtSubs.avi
Format                                   : AVI
Format/Info                              : Audio Video Interleave
File size                                : 991 MiB
Duration                                 : 1h 27mn
Overall bit rate                         : 1 593 Kbps
Writing application                      : Lavf52.94.0

Video
ID                                       : 0
Format                                   : MPEG-4 Visual
Format profile                           : Simple@L3
Format settings, BVOP                    : No
Format settings, QPel                    : No
Format settings, GMC                     : No warppoints
Format settings, Matrix                  : Default (H.263)
Codec ID                                 : XVID
Codec ID/Hint                            : XviD
Duration                                 : 1h 27mn
Bit rate                                 : 1 358 Kbps
Width                                    : 1 024 pixels
Height                                   : 576 pixels
Display aspect ratio                     : 16:9
Frame rate                               : 25.000 fps
Color space                              : YUV
Chroma subsampling                       : 4:2:0
Bit depth                                : 8 bits
Scan type                                : Progressive
Compression mode                         : Lossy
Bits/(Pixel*Frame)                       : 0.092
Stream size                              : 845 MiB (85%)
Writing library                          : XviD 1.2.1 (UTC 2008-12-04)

Audio
ID                                       : 1
Format                                   : AC-3
Format/Info                              : Audio Coding 3
Mode extension                           : CM (complete main)
Format settings, Endianness              : Big
Codec ID                                 : 2000
Duration                                 : 1h 27mn
Bit rate mode                            : Constant
Bit rate                                 : 224 Kbps
Channel(s)                               : 2 channels
Channel positions                        : Front: L R
Sampling rate                            : 48.0 KHz
Bit depth                                : 16 bits
Compression mode                         : Lossy
Stream size                              : 139 MiB (14%)
Alignment                                : Aligned on interleaves
Interleave, duration                     : 32 ms (0.80 video frame)

